<?xml version="1.0" encoding="UTF-8"?>
<svg id="Layer_1" data-name="Layer 1" xmlns="http://www.w3.org/2000/svg" xmlns:xlink="http://www.w3.org/1999/xlink" version="1.1" viewBox="0 0 354 165.4">
  <defs>
    <style>
      .cls-1 {
        fill: #117bbc;
      }

      .cls-1, .cls-2, .cls-3, .cls-4, .cls-5, .cls-6 {
        stroke-width: 0px;
      }

      .cls-7 {
        clip-path: url(#clippath);
      }

      .cls-2 {
        fill: none;
      }

      .cls-3 {
        fill: #b8f4ef;
      }

      .cls-4 {
        fill: #5ed2e5;
      }

      .cls-8 {
        clip-path: url(#clippath-1);
      }

      .cls-9 {
        clip-path: url(#clippath-3);
      }

      .cls-10 {
        clip-path: url(#clippath-2);
      }

      .cls-11 {
        stroke: #fff;
        stroke-width: 12px;
      }

      .cls-11, .cls-6 {
        fill: #fff;
      }

      .cls-5 {
        fill: #065a8d;
        fill-rule: evenodd;
      }
    </style>
    <clipPath id="clippath">
      <rect class="cls-2" x="11.3" y="12.1" width="108" height="145"/>
    </clipPath>
    <clipPath id="clippath-1">
      <rect class="cls-2" x="54.1" y="67.9" width="11.9" height="19.7"/>
    </clipPath>
    <clipPath id="clippath-2">
      <rect class="cls-2" x="54.1" y="61.6" width="23" height="13"/>
    </clipPath>
    <clipPath id="clippath-3">
      <rect class="cls-2" x="64.7" y="67.9" width="12.4" height="19.7"/>
    </clipPath>
  </defs>
  <g class="cls-7">
    <path class="cls-5" d="M24.3,57.4v84.7l-13-7.5V43.3l27-15.6,20.5-11.8,6.5-3.8,6.5,3.8v45.1l-6.5-3.7-6.5,3.7-8.4,4.9v91.3l-13-7.5V58.3l21.4-12.4v-15l-34.5,19.9s0,6.6,0,6.6ZM106.3,113.1l13-7.5v-62.3l-13-7.5v62.3l-13,7.5-13,7.5-8.4,4.9v-15l8.4-4.9,13-7.5V28.2l-1-.6-12-7v62.3l-8.4,4.9-6.5,3.7-6.5-3.7v45.1l6.5,3.7,6.5-3.7,8.4-4.9,12-7,1-.6,13-7.5v.2Z"/>
  </g>
  <g class="cls-8">
    <path class="cls-3" d="M65.6,87.6h0l-11.4-6.5h0v-13h0l11.4,6.5h0v13Z"/>
  </g>
  <g class="cls-10">
    <path class="cls-4" d="M77,68.1l-11.4,6.5h0l-11.4-6.5,11.4-6.5,11.4,6.5Z"/>
  </g>
  <g class="cls-9">
    <path class="cls-1" d="M77,68.1v13h0l-11.4,6.5h0v-13h0l11.4-6.5h0Z"/>
  </g>
  <path class="cls-6" d="M263.4,54.2v-4.7h16.5v4.7h-5.6v18.8h-5.4v-18.8h-5.6.1Z"/>
  <path class="cls-6" d="M295.3,49.6v4.7h-8.1v4.7h7.7v4.7h-7.7v4.7h8.1v4.7h-13.4v-23.5h13.4Z"/>
  <path class="cls-6" d="M310.8,68.2c.8,0,1.6,0,2.4-.4s1.3-.5,1.7-.7l.5-.4,2.3,4.6s-.2,0-.3.2c-.1,0-.4.3-.9.5-.5.3-1,.5-1.6.7-.5.2-1.3.4-2.1.5-.9.2-1.8.2-2.8.2-2.2,0-4.3-.5-6.2-1.6-2-1.1-3.5-2.5-4.7-4.4s-1.8-3.9-1.8-6.1.3-3.2,1-4.8c.7-1.5,1.6-2.8,2.8-3.9s2.5-1.9,4.1-2.6c1.6-.7,3.2-1,4.8-1s2.9.2,4.2.5c1.3.4,2.2.7,2.7,1.1l.8.5-2.3,4.6c-.1,0-.3-.3-.6-.4-.3-.2-.8-.4-1.6-.6-.8-.3-1.6-.4-2.4-.4-1.3,0-2.5.2-3.5.6-1,.4-1.8,1-2.4,1.6-.6.7-1.1,1.4-1.4,2.2s-.5,1.6-.5,2.4c0,1.8.7,3.4,2,4.8s3.2,2.1,5.7,2.1v.2Z"/>
  <path class="cls-6" d="M325.1,63.6v9.4h-5.4v-23.5h5.4v9.4h7.6v-9.4h5.3v23.5h-5.3v-9.4h-7.6Z"/>
  <path class="cls-6" d="M139.5,58.4v14.6h-5.4v-23.5h5.4l9.3,14.6h0v-14.6h5.4v23.5h-5.4l-9.3-14.6h0Z"/>
  <path class="cls-6" d="M156.6,61.3c0-3.4,1.2-6.3,3.5-8.6,2.3-2.4,5.1-3.5,8.4-3.5s6.1,1.2,8.4,3.5c2.3,2.3,3.5,5.2,3.5,8.6s-1.1,6.3-3.4,8.7c-2.3,2.3-5.1,3.5-8.4,3.5s-6.3-1.2-8.5-3.5-3.3-5.2-3.3-8.7h-.2ZM162.3,61.3c0,1.2.2,2.4.6,3.4.4,1,1.1,1.9,2,2.6,1,.7,2.1,1,3.5,1,2,0,3.5-.7,4.5-2,1-1.4,1.5-3,1.5-5s-.5-3.6-1.6-4.9c-1-1.4-2.5-2.1-4.5-2.1s-3.4.7-4.5,2.1c-1.1,1.4-1.6,3-1.6,4.9h.1Z"/>
  <path class="cls-6" d="M195,68.2c.8,0,1.6,0,2.4-.4.8-.3,1.3-.5,1.7-.7l.5-.4,2.3,4.6s-.2,0-.3.2c-.1,0-.4.3-.9.5-.5.3-1,.5-1.6.7-.5.2-1.3.4-2.1.5-.9.2-1.8.2-2.8.2-2.2,0-4.3-.5-6.2-1.6-2-1.1-3.5-2.5-4.7-4.4s-1.8-3.9-1.8-6.1.3-3.2,1-4.8c.7-1.5,1.6-2.8,2.8-3.9s2.5-1.9,4.1-2.6c1.6-.7,3.2-1,4.8-1s2.9.2,4.2.5c1.3.4,2.2.7,2.7,1.1l.8.5-2.3,4.6c-.1,0-.3-.3-.6-.4-.3-.2-.8-.4-1.6-.6-.8-.3-1.6-.4-2.4-.4-1.3,0-2.5.2-3.5.6-1,.4-1.8,1-2.4,1.6-.6.7-1.1,1.4-1.4,2.2-.3.8-.5,1.6-.5,2.4,0,1.8.7,3.4,2,4.8s3.2,2.1,5.7,2.1v.2Z"/>
  <path class="cls-6" d="M209.3,63.6v9.4h-5.4v-23.5h5.4v9.4h7.6v-9.4h5.3v23.5h-5.3v-9.4h-7.6Z"/>
  <path class="cls-6" d="M224.2,54.2v-4.7h16.5v4.7h-5.6v18.8h-5.4v-18.8h-5.6.1Z"/>
  <path class="cls-6" d="M254.5,49.6l9.5,23.5h-5.7l-1.8-4.7h-8.9l-1.7,4.7h-5.8l9.5-23.5h5-.1ZM254.7,63.6l-2.6-6.8h0l-2.6,6.8h5.3,0Z"/>
  <path class="cls-11" d="M133,88.1h211.7"/>
  <path class="cls-6" d="M167.7,100.3h6.3v1.2h-4.8v3.1h3.4v1.2h-3.4v5.7h-1.5s0-11.2,0-11.2Z"/>
  <path class="cls-6" d="M178.1,100.3c.2,0,.4,0,.6.3.2.2.3.4.3.6s0,.5-.3.6c-.2.2-.4.3-.6.3s-.5,0-.6-.3c-.2-.2-.3-.4-.3-.6s0-.5.3-.6c.2-.2.4-.3.6-.3ZM177.4,103.4h1.3v8.1h-1.3v-8.1Z"/>
  <path class="cls-6" d="M182.7,103.6l1.3-.3c0,.3.2.6.2.9v.8h.2c.3-.5.6-.9,1.1-1.3.5-.3.9-.5,1.5-.5s1.4.2,1.8.6c.3.3.6.8.7,1.5,0,.5.1,1.1.1,2v4.3h-1.4v-4.7c0-.8,0-1.3-.2-1.6-.2-.5-.7-.8-1.4-.8s-.9.2-1.4.7-.6.8-1,1.4v5h-1.4v-6.8c0-.3,0-.7-.2-1.2h0Z"/>
  <path class="cls-6" d="M193.9,104.8l-.4-1.1c.9-.3,1.8-.5,2.8-.5s1.5,0,1.9.4c.5.3.8.9.8,1.6v5.3c0,.3,0,.5.1.8l-1.3.3c-.1-.4-.2-.8-.2-1.2h-.1c-.7.8-1.5,1.2-2.5,1.2s-1.3-.2-1.8-.6c-.4-.4-.7-1-.7-1.7s.1-1,.4-1.3c.3-.4.6-.7,1-.9.7-.4,1.7-.6,2.9-.6h.7v-1.2c0-.4-.1-.6-.4-.8-.2-.2-.6-.3-1.1-.3s-1.5.2-2.4.5h.3ZM197.6,109.2v-1.6h-.6c-.5,0-.9,0-1.3,0-.6,0-1,.3-1.3.5s-.5.6-.5,1.1c0,.8.5,1.3,1.4,1.3s.9,0,1.3-.4c.3-.2.7-.5,1-1h0Z"/>
  <path class="cls-6" d="M202.7,103.6l1.3-.3c0,.3.2.6.2.9v.8h.2c.3-.5.6-.9,1.1-1.3.5-.3.9-.5,1.5-.5s1.4.2,1.8.6c.3.3.6.8.7,1.5,0,.5.1,1.1.1,2v4.3h-1.4v-4.7c0-.8,0-1.3-.2-1.6-.2-.5-.7-.8-1.4-.8s-.9.2-1.4.7-.6.8-1,1.4v5h-1.4v-6.8c0-.3,0-.7-.2-1.2h0Z"/>
  <path class="cls-6" d="M219.1,111.2c-.4,0-.9.3-1.3.3s-.9,0-1.3,0c-.6,0-1.2,0-1.6-.3-.5-.2-.8-.4-1.1-.8s-.5-.8-.7-1.3c-.1-.5-.2-1.1-.2-1.8s0-1.3.3-1.9c.2-.5.4-1,.8-1.4.3-.4.8-.7,1.3-.9.5-.2,1.1-.3,1.7-.3s.6,0,1,0c.3,0,.7.2,1,.3l-.3,1.1c-.3,0-.5-.2-.8-.2h-.7c-.9,0-1.6.3-2,.8-.5.5-.7,1.3-.7,2.3s0,.9.1,1.3c0,.4.2.7.4,1s.4.5.7.6.7.2,1.2.2.6,0,1,0c.4,0,.8-.2,1.2-.3l.3,1.1h-.3Z"/>
  <path class="cls-6" d="M223.3,100.3c.2,0,.4,0,.6.3.2.2.3.4.3.6s0,.5-.3.6c-.2.2-.4.3-.6.3s-.5,0-.6-.3c-.2-.2-.3-.4-.3-.6s0-.5.3-.6c.2-.2.4-.3.6-.3ZM222.6,103.4h1.3v8.1h-1.3v-8.1Z"/>
  <path class="cls-6" d="M228.6,104.8l-.4-1.1c.9-.3,1.8-.5,2.8-.5s1.5,0,1.9.4c.5.3.8.9.8,1.6v5.3c0,.3,0,.5.1.8l-1.3.3c-.1-.4-.2-.8-.2-1.2h-.1c-.7.8-1.5,1.2-2.5,1.2s-1.3-.2-1.8-.6c-.4-.4-.7-1-.7-1.7s.1-1,.4-1.3c.3-.4.6-.7,1-.9.7-.4,1.7-.6,2.9-.6h.7v-1.2c0-.4-.1-.6-.4-.8-.2-.2-.6-.3-1.1-.3s-1.5.2-2.4.5h.3ZM232.4,109.2v-1.6h-.6c-.5,0-.9,0-1.3,0-.6,0-1,.3-1.3.5s-.5.6-.5,1.1c0,.8.5,1.3,1.4,1.3s.9,0,1.3-.4c.3-.2.7-.5,1-1h0Z"/>
  <path class="cls-6" d="M238.9,108.4v2.5c0,.2,0,.4.1.6-.2,0-.4,0-.6.2-.2,0-.4,0-.7,0,0-.3-.2-.6-.2-.9v-10.4h1.3v8.1-.2Z"/>
  <path class="cls-6" d="M249,100.3h6.3v1.2h-4.8v3.1h3.4v1.2h-3.4v4.5h4.9v1.2h-6.4s0-11.2,0-11.2Z"/>
  <path class="cls-6" d="M263.9,100.3h1.4v10c0,.4,0,.7.2,1.1l-1.3.3c0-.3-.2-.6-.2-.9v-.8h-.1c-.3.6-.6,1-.9,1.3-.4.3-.9.5-1.5.5s-1,0-1.3-.3c-.4-.2-.6-.5-.9-.9-.2-.4-.4-.8-.5-1.3,0-.5-.1-1-.1-1.6s0-1.2.2-1.8c.1-.5.3-1,.6-1.4.3-.4.6-.7,1.1-.9.5-.2,1-.3,1.6-.3s1.1,0,1.7.2v-3.1h0ZM263.9,108.2v-3.6c-.6-.2-1.1-.3-1.6-.3s-.8,0-1.1.3c-.3.2-.6.4-.7.6-.2.3-.3.6-.4.9,0,.3-.1.7-.1,1.1v1.5c0,.3,0,.5.2.6,0,.2.2.4.3.5.1.2.3.3.4.4.2,0,.4,0,.6,0,.6,0,1-.2,1.4-.7.3-.3.6-.8.9-1.6v.2Z"/>
  <path class="cls-6" d="M276.2,111.4l-1.3.3c0-.3-.2-.6-.2-.9v-.8h-.1c-.3.5-.6.9-1.1,1.3-.5.3-1,.5-1.5.5-.8,0-1.4-.2-1.8-.6-.3-.3-.6-.8-.7-1.5,0-.4-.1-1.1-.1-2v-4.3h1.3v4.7c0,.8,0,1.3.2,1.7.2.5.7.7,1.4.7s.9-.2,1.4-.7c.3-.3.7-.8,1-1.4v-5h1.3v6.8c0,.3,0,.7.2,1.2h0Z"/>
  <path class="cls-6" d="M285.6,111.2c-.4,0-.9.3-1.3.3s-.9,0-1.3,0c-.6,0-1.2,0-1.6-.3-.5-.2-.8-.4-1.1-.8-.3-.4-.5-.8-.7-1.3-.1-.5-.2-1.1-.2-1.8s0-1.3.3-1.9c.2-.5.4-1,.8-1.4.3-.4.8-.7,1.3-.9.5-.2,1.1-.3,1.7-.3s.6,0,1,0c.3,0,.7.2,1,.3l-.3,1.1c-.3,0-.5-.2-.8-.2h-.7c-.9,0-1.6.3-2,.8-.5.5-.7,1.3-.7,2.3s0,.9.1,1.3c0,.4.2.7.4,1,.2.3.4.5.7.6.3,0,.7.2,1.2.2s.6,0,1,0c.4,0,.8-.2,1.2-.3l.3,1.1h-.3Z"/>
  <path class="cls-6" d="M289.5,104.8l-.4-1.1c.9-.3,1.8-.5,2.8-.5s1.5,0,1.9.4c.5.3.8.9.8,1.6v5.3c0,.3,0,.5.1.8l-1.3.3c-.1-.4-.2-.8-.2-1.2h-.1c-.7.8-1.5,1.2-2.5,1.2s-1.3-.2-1.8-.6c-.4-.4-.7-1-.7-1.7s.1-1,.4-1.3c.3-.4.6-.7,1-.9.7-.4,1.7-.6,2.9-.6h.7v-1.2c0-.4-.1-.6-.4-.8-.2-.2-.6-.3-1.1-.3s-1.5.2-2.4.5h.3ZM293.2,109.2v-1.6h-.6c-.5,0-.9,0-1.3,0-.6,0-1,.3-1.3.5s-.5.6-.5,1.1c0,.8.5,1.3,1.4,1.3s.9,0,1.3-.4c.3-.2.7-.5,1-1Z"/>
  <path class="cls-6" d="M299.3,101.6h1.3v1.9h2.7v1.1h-2.7v5.4c0,.2,0,.3.1.4.1.2.4.3.8.3h.7c.2,0,.4,0,.6,0,.2.3.3.7.4,1-.6.2-1.2.3-1.9.3s-.8,0-1.1-.2c-.3,0-.5-.3-.6-.5-.2-.2-.3-.5-.3-.9v-5.7h-1.2v-1.1h1.2v-1.9Z"/>
  <path class="cls-6" d="M307.5,100.3c.2,0,.4,0,.6.3.2.2.3.4.3.6s0,.5-.3.6c-.2.2-.4.3-.6.3s-.5,0-.6-.3c-.2-.2-.3-.4-.3-.6s0-.5.3-.6c.2-.2.4-.3.6-.3ZM306.9,103.4h1.3v8.1h-1.3v-8.1Z"/>
  <path class="cls-6" d="M315.5,103.2h.8c.3,0,.5,0,.8.2s.5.3.8.5c.2.2.4.5.6.8s.3.7.4,1.1.2,1,.2,1.6,0,1.1-.2,1.6c0,.4-.2.8-.4,1.1-.2.3-.4.6-.6.8-.2.2-.5.3-.8.5-.3,0-.5.2-.8.2h-1.6c-.3,0-.5,0-.8-.2s-.5-.3-.8-.5c-.2-.2-.4-.4-.6-.8-.2-.3-.3-.7-.4-1.1,0-.4-.1-1-.1-1.6s0-1.1.1-1.6c.1-.4.3-.8.4-1.1.2-.3.4-.6.6-.8.2-.2.5-.3.8-.5.3,0,.5-.2.8-.2h.8ZM315.5,104.3c-.3,0-.6,0-.8,0-.3,0-.5.3-.7.5s-.4.6-.5,1-.2.9-.2,1.5,0,1.1.2,1.5c.1.4.3.7.5,1,.2.2.4.4.7.5.3,0,.5,0,.8,0s.6,0,.9,0c.3,0,.5-.3.7-.5s.4-.6.5-1,.2-.9.2-1.5,0-1.1-.2-1.5c-.1-.4-.3-.7-.5-1-.2-.2-.4-.4-.7-.5-.3,0-.6,0-.9,0Z"/>
  <path class="cls-6" d="M322.4,103.6l1.3-.3c0,.3.2.6.2.9v.8h.2c.3-.5.6-.9,1.1-1.3.5-.3.9-.5,1.5-.5s1.4.2,1.8.6c.3.3.6.8.7,1.5,0,.5.1,1.1.1,2v4.3h-1.4v-4.7c0-.8,0-1.3-.2-1.6-.2-.5-.7-.8-1.4-.8s-.9.2-1.4.7c-.3.3-.6.8-1,1.4v5h-1.4v-6.8c0-.3,0-.7-.2-1.2h0Z"/>
</svg>