<?xml version="1.0" encoding="UTF-8"?>
<!-- Generator: Adobe Illustrator 28.2.0, SVG Export Plug-In . SVG Version: 6.00 Build 0)  -->
<svg version="1.1" id="Layer_1" xmlns="http://www.w3.org/2000/svg" xmlns:xlink="http://www.w3.org/1999/xlink" x="0px" y="0px" viewBox="0 0 500 274.8" style="enable-background:new 0 0 500 274.8;" xml:space="preserve">
<style type="text/css">
	.st0{fill:#FFFFFF;}
	.st1{fill:url(#SVGID_1_);}
	.st2{opacity:0.1;}
	.st3{fill:url(#SVGID_00000088815305736322077780000016052257284267063956_);}
	.st4{fill:url(#SVGID_00000036974366325859163470000008662150377086470306_);}
	.st5{fill:url(#SVGID_00000147217932318017793930000012453363927474471855_);}
	.st6{fill:#0062B6;}
	.st7{fill:url(#SVGID_00000102505010201577051980000009160872953795760044_);}
	.st8{fill:url(#SVGID_00000160162984787291263790000012824790597449677752_);}
	.st9{fill:url(#SVGID_00000149342833485670272930000012456023782008660375_);}
	.st10{fill:url(#SVGID_00000071553320031482767650000015879533577045633970_);}
	.st11{fill:url(#SVGID_00000129166202705982107560000006407327592703391881_);}
	.st12{fill:url(#SVGID_00000005235970094645504910000009935775003050544301_);}
	.st13{fill:url(#SVGID_00000140733467344237011620000011793705252019380401_);}
	.st14{fill:url(#SVGID_00000006709178358870123890000013781565948421952648_);}
	.st15{fill:url(#SVGID_00000121278540070147487740000001371575076236490115_);}
</style>
<g>
	<g>
		<path class="st0" d="M262.8,78.6h-25.2v-9.1h61.3v9.1h-25.3v73.7h-10.8V78.6z"/>
		<path class="st0" d="M308.1,70.6c5.4-1.1,13.1-1.7,20.5-1.7c11.4,0,18.8,2.1,23.9,6.8c4.2,3.7,6.5,9.3,6.5,15.7    c0,10.9-6.9,18.2-15.6,21.1v0.4c6.4,2.2,10.2,8.1,12.2,16.7c2.7,11.5,4.7,19.5,6.4,22.7h-11c-1.4-2.3-3.2-9.5-5.5-19.8    c-2.5-11.4-6.9-15.7-16.6-16.1h-10.1v35.8h-10.7V70.6z M318.8,108.3h10.9c11.4,0,18.7-6.3,18.7-15.7c0-10.7-7.7-15.3-19-15.5    c-5.2,0-8.8,0.5-10.6,1V108.3z"/>
		<path class="st0" d="M374.2,70.5c5.2-0.9,11.9-1.6,20.5-1.6c10.6,0,18.3,2.5,23.2,6.9c4.5,3.9,7.2,9.9,7.2,17.3    c0,7.5-2.2,13.4-6.4,17.7c-5.6,6-14.9,9.1-25.3,9.1c-3.2,0-6.1-0.1-8.6-0.7v33.1h-10.7V70.5z M384.9,110.4    c2.3,0.6,5.3,0.9,8.8,0.9c12.9,0,20.7-6.3,20.7-17.7c0-10.9-7.7-16.2-19.5-16.2c-4.7,0-8.2,0.4-10.1,0.9V110.4z"/>
		<path class="st0" d="M430.1,146l45.9-67.1v-0.4h-42v-9h55.9V76l-45.7,66.9v0.4h46.3v9h-60.4V146z"/>
	</g>
	<g>
		<path class="st0" d="M262.8,78.6h-25.2v-9.1h61.3v9.1h-25.3v73.7h-10.8V78.6z"/>
		<path class="st0" d="M308.1,70.6c5.4-1.1,13.1-1.7,20.5-1.7c11.4,0,18.8,2.1,23.9,6.8c4.2,3.7,6.5,9.3,6.5,15.7    c0,10.9-6.9,18.2-15.6,21.1v0.4c6.4,2.2,10.2,8.1,12.2,16.7c2.7,11.5,4.7,19.5,6.4,22.7h-11c-1.4-2.3-3.2-9.5-5.5-19.8    c-2.5-11.4-6.9-15.7-16.6-16.1h-10.1v35.8h-10.7V70.6z M318.8,108.3h10.9c11.4,0,18.7-6.3,18.7-15.7c0-10.7-7.7-15.3-19-15.5    c-5.2,0-8.8,0.5-10.6,1V108.3z"/>
		<path class="st0" d="M374.2,70.5c5.2-0.9,11.9-1.6,20.5-1.6c10.6,0,18.3,2.5,23.2,6.9c4.5,3.9,7.2,9.9,7.2,17.3    c0,7.5-2.2,13.4-6.4,17.7c-5.6,6-14.9,9.1-25.3,9.1c-3.2,0-6.1-0.1-8.6-0.7v33.1h-10.7V70.5z M384.9,110.4    c2.3,0.6,5.3,0.9,8.8,0.9c12.9,0,20.7-6.3,20.7-17.7c0-10.9-7.7-16.2-19.5-16.2c-4.7,0-8.2,0.4-10.1,0.9V110.4z"/>
		<path class="st0" d="M430.1,146l45.9-67.1v-0.4h-42v-9h55.9V76l-45.7,66.9v0.4h46.3v9h-60.4V146z"/>
	</g>
</g>
<g>
	<path class="st0" d="M363.2,161.4c0.4,0.4,0.6,0.8,0.6,1.4c0,0.6-0.2,1-0.6,1.4c-0.4,0.3-0.9,0.5-1.4,0.5h-14V206   c0,0.6-0.2,1.1-0.6,1.4c-0.4,0.4-0.9,0.6-1.5,0.6c-0.6,0-1.1-0.2-1.5-0.6c-0.4-0.4-0.6-0.9-0.6-1.4v-41.3h-14   c-0.6,0-1.1-0.2-1.4-0.5c-0.4-0.4-0.6-0.8-0.6-1.4c0-0.5,0.2-1,0.6-1.3c0.4-0.4,0.9-0.5,1.4-0.5h32.1   C362.3,160.9,362.8,161.1,363.2,161.4z"/>
	<path class="st0" d="M400.6,204.7c0.4,0.4,0.6,0.9,0.6,1.4c0,0.6-0.2,1.1-0.6,1.4c-0.4,0.4-0.9,0.5-1.4,0.5h-24.7   c-0.6,0-1.1-0.2-1.4-0.6c-0.4-0.4-0.6-0.9-0.6-1.4v-43.1c0-0.6,0.2-1.1,0.6-1.4c0.4-0.4,0.9-0.6,1.4-0.6h24.7   c0.6,0,1.1,0.2,1.4,0.6c0.4,0.4,0.6,0.9,0.6,1.4s-0.2,1.1-0.6,1.4c-0.4,0.4-0.9,0.5-1.4,0.5h-22.5v16.9h19.5c0.6,0,1.1,0.2,1.4,0.6   c0.4,0.4,0.6,0.9,0.6,1.4c0,0.6-0.2,1.1-0.6,1.4c-0.4,0.4-0.9,0.5-1.4,0.5h-19.5v18.3h22.5C399.7,204.1,400.2,204.3,400.6,204.7z"/>
	<path class="st0" d="M446.1,166.1c0,0.4-0.2,0.9-0.5,1.3c-0.4,0.5-0.9,0.7-1.5,0.7c-0.4,0-0.7-0.1-1.1-0.3   c-3.6-2.4-7.5-3.6-11.8-3.6c-3.6,0-6.9,0.9-9.9,2.6c-2.9,1.7-5.3,4.1-6.9,7.2c-1.7,3.1-2.5,6.6-2.5,10.5c0,4,0.9,7.5,2.6,10.6   c1.7,3.1,4,5.5,7,7.1c2.9,1.7,6.2,2.5,9.8,2.5c4.3,0,8.2-1.2,11.7-3.5c0.4-0.2,0.7-0.3,1.1-0.3c0.6,0,1.1,0.3,1.5,0.8   c0.3,0.4,0.5,0.8,0.5,1.3c0,0.7-0.3,1.3-0.9,1.6c-1.8,1.2-3.9,2.1-6.5,2.9c-2.6,0.8-5.1,1.2-7.5,1.2c-4.3,0-8.2-1-11.8-3.1   c-3.6-2-6.5-4.9-8.6-8.6c-2.1-3.7-3.2-7.9-3.2-12.6c0-4.5,1.1-8.7,3.2-12.4c2.1-3.7,5-6.6,8.6-8.7c3.6-2.1,7.6-3.1,11.9-3.1   c2.5,0,5,0.4,7.4,1.1c2.4,0.7,4.6,1.7,6.5,3C445.8,164.8,446.1,165.3,446.1,166.1z"/>
	<path class="st0" d="M490,161.5c0.4,0.4,0.6,0.9,0.6,1.5v43c0,0.6-0.3,1.1-0.7,1.5c-0.4,0.4-0.9,0.6-1.5,0.6   c-0.6,0-1.1-0.2-1.5-0.6c-0.4-0.4-0.6-0.9-0.6-1.5v-20.1h-27.4V206c0,0.6-0.3,1.1-0.7,1.5c-0.4,0.4-0.9,0.6-1.5,0.6   c-0.6,0-1.1-0.2-1.5-0.6c-0.4-0.4-0.6-0.9-0.6-1.5v-43c0-0.6,0.2-1.1,0.6-1.5c0.4-0.4,0.9-0.6,1.5-0.6c0.6,0,1.1,0.2,1.5,0.6   c0.4,0.4,0.6,0.9,0.6,1.5v19h27.4v-19c0-0.6,0.2-1.1,0.6-1.5c0.4-0.4,0.9-0.6,1.5-0.6C489.1,160.9,489.6,161.1,490,161.5z"/>
</g>
<g>
	<g>
		<linearGradient id="SVGID_1_" gradientUnits="userSpaceOnUse" x1="100.4155" y1="132.139" x2="159.907" y2="206.7738">
			<stop offset="0" style="stop-color:#FFFFFF"/>
			<stop offset="1" style="stop-color:#EBEBEB"/>
		</linearGradient>
		<polygon class="st1" points="10.5,173.5 177.7,75 233.8,197.7   "/>
		<g class="st2">
			<path d="M181.7,192.1l27.3,3c0.2-0.9,0.4-1.7,0.5-2.6l3.1-41l-22.7-49.8c-0.3,0.5-0.5,1-0.7,1.5c0,0,0,0,0,0l0,0     c-0.5,1.4-0.9,2.8-1,4.3L181.7,192.1z"/>
			<polygon points="142.7,206.4 142.7,206.4 142.7,206.4    "/>
			<polygon points="72.1,206.3 72.1,206.2 72.1,206.3    "/>
			<path d="M173.2,77.7l-29,17.1l-7,92.4l27.6,3l8.5-111.3c0,0,0,0,0,0C173.2,78.5,173.2,78.1,173.2,77.7z"/>
			<path d="M92.4,182.4l27.6,3l5.9-77.9c0-0.5,0-0.9,0-1.4c0-0.1,0-0.3,0-0.4c0-0.1,0-0.1,0-0.2l-28.9,17L92.4,182.4z"/>
			<path d="M49.9,150.3l-2.1,27.3l27.6,3l3.6-47.2c0-0.1,0-0.2,0-0.2L49.9,150.3z"/>
		</g>
	</g>
	<g>
		<g>
			
				<linearGradient id="SVGID_00000182494465770651215850000003800534167663435676_" gradientUnits="userSpaceOnUse" x1="193.946" y1="100.2579" x2="193.946" y2="238.1885">
				<stop offset="0" style="stop-color:#7081D7"/>
				<stop offset="0.9897" style="stop-color:#6B45B3"/>
			</linearGradient>
			<path style="fill:url(#SVGID_00000182494465770651215850000003800534167663435676_);" d="M193.9,94.5L193.9,94.5     c-7.7,0-13.9,6.2-13.9,13.9v84.1c0,7.7,6.2,13.9,13.9,13.9l0,0c7.7,0,13.9-6.2,13.9-13.9v-84.1     C207.8,100.7,201.6,94.5,193.9,94.5z"/>
			<path class="st2" d="M193.9,94.5L193.9,94.5l0,111.9h0c7.7,0,13.9-6.2,13.9-13.9v-84.1c0-3.8-1.6-7.3-4.1-9.8     c-0.3-0.3-0.6-0.6-1-0.9c-0.6-0.5-1.1-0.9-1.8-1.2C198.9,95.2,196.5,94.5,193.9,94.5z"/>
			
				<linearGradient id="SVGID_00000119804682807045833050000000083551274708789932_" gradientUnits="userSpaceOnUse" x1="193.946" y1="96.5908" x2="193.946" y2="156.9826">
				<stop offset="1.030930e-02" style="stop-color:#7B8DEB"/>
				<stop offset="1" style="stop-color:#706BCA"/>
			</linearGradient>
			<path style="fill:url(#SVGID_00000119804682807045833050000000083551274708789932_);" d="M193.9,111.9c5.2,0,9.8-3,13.2-7.8     c-1.8-5.6-7-9.6-13.2-9.6h0c-6.2,0-11.4,4-13.2,9.6C184.1,108.9,188.8,111.9,193.9,111.9z"/>
			
				<linearGradient id="SVGID_00000120538233357287894440000009247177862609354648_" gradientUnits="userSpaceOnUse" x1="193.946" y1="218.4798" x2="193.946" y2="190.1537">
				<stop offset="0" style="stop-color:#7081D7"/>
				<stop offset="0.9897" style="stop-color:#614791"/>
			</linearGradient>
			<path style="fill:url(#SVGID_00000120538233357287894440000009247177862609354648_);" d="M193.9,189c-5.2,0-9.8,3-13.2,7.8     c1.8,5.6,7,9.6,13.2,9.6h0c6.2,0,11.4-4,13.2-9.6C203.8,192,199.1,189,193.9,189z"/>
		</g>
		<g>
			<polygon class="st6" points="142.1,206.4 142.1,206.4 142.1,206.4    "/>
			<polygon class="st6" points="71.5,206.3 71.5,206.3 71.5,206.3    "/>
		</g>
		<g>
			
				<linearGradient id="SVGID_00000060030630263570889490000003140355913439803525_" gradientUnits="userSpaceOnUse" x1="148.931" y1="88.5616" x2="148.931" y2="212.7608">
				<stop offset="0" style="stop-color:#008BAA"/>
				<stop offset="1" style="stop-color:#0060AB"/>
			</linearGradient>
			<path style="fill:url(#SVGID_00000060030630263570889490000003140355913439803525_);" d="M148.9,66.3L148.9,66.3     c-7.7,0-13.9,6.2-13.9,13.9v112.4c0,7.7,6.2,13.9,13.9,13.9l0,0c7.7,0,13.9-6.2,13.9-13.9V80.2C162.8,72.5,156.6,66.3,148.9,66.3     z"/>
			<path class="st2" d="M148.9,206.4c7.7,0,13.9-6.2,13.9-13.9V80.2c0-6.7-4.8-12.3-11.1-13.6c-0.9-0.2-1.8-0.3-2.8-0.3h0     L148.9,206.4L148.9,206.4z"/>
			
				<linearGradient id="SVGID_00000045590747777169531630000006341021854355698610_" gradientUnits="userSpaceOnUse" x1="148.931" y1="68.1575" x2="148.931" y2="160.5345">
				<stop offset="0" style="stop-color:#00AFD6"/>
				<stop offset="1" style="stop-color:#0060AB"/>
			</linearGradient>
			<path style="fill:url(#SVGID_00000045590747777169531630000006341021854355698610_);" d="M148.9,83.7c5.2,0,9.8-3,13.2-7.8     c-1.8-5.6-7-9.6-13.2-9.6h0c-6.2,0-11.4,4-13.2,9.6C139.1,80.7,143.8,83.7,148.9,83.7z"/>
			
				<linearGradient id="SVGID_00000178917546119626315770000001338867747940285576_" gradientUnits="userSpaceOnUse" x1="148.931" y1="224.4955" x2="148.931" y2="189.5917">
				<stop offset="0" style="stop-color:#008BAA"/>
				<stop offset="1" style="stop-color:#00427B"/>
			</linearGradient>
			<path style="fill:url(#SVGID_00000178917546119626315770000001338867747940285576_);" d="M148.9,189c-5.2,0-9.8,3-13.2,7.8     c1.8,5.6,7,9.6,13.2,9.6h0c6.2,0,11.4-4,13.2-9.6C158.8,192,154.1,189,148.9,189z"/>
		</g>
		<g>
			
				<linearGradient id="SVGID_00000144295503108146941920000010882096125659713692_" gradientUnits="userSpaceOnUse" x1="103.916" y1="113.6142" x2="103.916" y2="205.0721">
				<stop offset="0" style="stop-color:#00C2CD"/>
				<stop offset="1" style="stop-color:#008BAA"/>
			</linearGradient>
			<path style="fill:url(#SVGID_00000144295503108146941920000010882096125659713692_);" d="M105.8,94.5h-3.7     c-6.7,0-12.1,5.4-12.1,12.1v87.8c0,6.7,5.4,12.1,12.1,12.1h3.7c6.7,0,12.1-5.4,12.1-12.1v-87.8C117.8,99.9,112.4,94.5,105.8,94.5     z"/>
			<path class="st2" d="M114.6,99.6c-0.6-0.7-1.2-1.3-1.9-1.9c-0.3-0.3-0.7-0.6-1.1-0.8c-2.2-1.5-4.9-2.4-7.8-2.4h0v111.9h0     c7.7,0,13.9-6.2,13.9-13.9v-84.1C117.8,105.1,116.6,102,114.6,99.6z"/>
			
				<linearGradient id="SVGID_00000098908830488406030180000001004484348398470543_" gradientUnits="userSpaceOnUse" x1="103.916" y1="98.5381" x2="103.916" y2="146.6297">
				<stop offset="0" style="stop-color:#00DBE8"/>
				<stop offset="1" style="stop-color:#008BAA"/>
			</linearGradient>
			<path style="fill:url(#SVGID_00000098908830488406030180000001004484348398470543_);" d="M103.9,111.9c5.2,0,9.8-3,13.2-7.8     c-1.8-5.6-7-9.6-13.2-9.6h0c-6.2,0-11.4,4-13.2,9.6C94.1,108.9,98.8,111.9,103.9,111.9z"/>
			
				<linearGradient id="SVGID_00000152948224556704537330000010839977002134046349_" gradientUnits="userSpaceOnUse" x1="103.916" y1="225.6985" x2="103.916" y2="193.2607">
				<stop offset="0" style="stop-color:#00C2CD"/>
				<stop offset="1" style="stop-color:#00738B"/>
			</linearGradient>
			<path style="fill:url(#SVGID_00000152948224556704537330000010839977002134046349_);" d="M103.9,189c-5.2,0-9.8,3-13.2,7.8     c1.8,5.6,7,9.6,13.2,9.6h0c6.2,0,11.4-4,13.2-9.6C113.7,192,109.1,189,103.9,189z"/>
		</g>
		<g>
			
				<linearGradient id="SVGID_00000070804192593571940140000001489774701360638903_" gradientUnits="userSpaceOnUse" x1="58.901" y1="125.4971" x2="58.901" y2="208.5469">
				<stop offset="0" style="stop-color:#54DBB2"/>
				<stop offset="1" style="stop-color:#00C2CD"/>
			</linearGradient>
			<path style="fill:url(#SVGID_00000070804192593571940140000001489774701360638903_);" d="M58.9,120.2L58.9,120.2     c-7.7,0-13.9,6.2-13.9,13.9v58.5c0,7.7,6.2,13.9,13.9,13.9l0,0c7.7,0,13.9-6.2,13.9-13.9v-58.5C72.8,126.4,66.6,120.2,58.9,120.2     z"/>
			<path class="st2" d="M72.5,131.3c-0.4-2-1.3-3.8-2.4-5.4c-0.3-0.4-0.6-0.8-0.9-1.1c-0.3-0.3-0.6-0.6-0.9-0.9     c-0.3-0.3-0.6-0.5-0.9-0.8c-2.3-1.8-5.2-2.8-8.4-2.8h0v86.3c7.7,0,13.9-6.2,13.9-13.9v-58.5C72.8,133.1,72.7,132.2,72.5,131.3z"/>
			
				<linearGradient id="SVGID_00000031907978982826907920000002256995851374541995_" gradientUnits="userSpaceOnUse" x1="58.901" y1="120.293" x2="58.901" y2="138.2417">
				<stop offset="0" style="stop-color:#91F6D5"/>
				<stop offset="1" style="stop-color:#39D8D0"/>
			</linearGradient>
			<path style="fill:url(#SVGID_00000031907978982826907920000002256995851374541995_);" d="M58.9,137.6c5.2,0,9.8-3,13.2-7.8     c-1.8-5.6-7-9.6-13.2-9.6h0c-6.2,0-11.4,4-13.2,9.6C49.1,134.6,53.7,137.6,58.9,137.6z"/>
			
				<linearGradient id="SVGID_00000106854235056894991110000014975987656482760881_" gradientUnits="userSpaceOnUse" x1="58.901" y1="220.6454" x2="58.901" y2="191.6705">
				<stop offset="0" style="stop-color:#54DBB2"/>
				<stop offset="1" style="stop-color:#009DA7"/>
			</linearGradient>
			<path style="fill:url(#SVGID_00000106854235056894991110000014975987656482760881_);" d="M58.9,189c-5.2,0-9.8,3-13.2,7.8     c1.8,5.6,7,9.6,13.2,9.6h0c6.2,0,11.4-4,13.2-9.6C68.7,192,64.1,189,58.9,189z"/>
		</g>
	</g>
</g>
</svg>