<?xml version="1.0" encoding="UTF-8"?>
<!-- Generator: Adobe Illustrator 28.2.0, SVG Export Plug-In . SVG Version: 6.00 Build 0)  -->
<svg version="1.1" id="Layer_1" xmlns="http://www.w3.org/2000/svg" xmlns:xlink="http://www.w3.org/1999/xlink" x="0px" y="0px" viewBox="0 0 500 274.8" style="enable-background:new 0 0 500 274.8;" xml:space="preserve">
<style type="text/css">
	.st0{fill:url(#SVGID_1_);}
	.st1{fill:url(#SVGID_00000160148861824795249570000000272123309799868607_);}
	.st2{fill:url(#SVGID_00000029750943787212343000000003743054383711838394_);}
	.st3{fill:url(#SVGID_00000132080158884194382160000002920414435623092872_);}
	.st4{fill:#FFFFFF;}
</style>
<g>
	<g>
		<g>
			<linearGradient id="SVGID_1_" gradientUnits="userSpaceOnUse" x1="25.4793" y1="124.7058" x2="137.3909" y2="193.7577">
				<stop offset="0" style="stop-color:#0496FF"/>
				<stop offset="0.9086" style="stop-color:#56CBFF"/>
			</linearGradient>
			<path class="st0" d="M5.4,101.8l46.5,80.5c12.6,21.8,44.1,21.8,56.7,0l0.4-0.6l-46.1-79.8H5.4z"/>
			
				<linearGradient id="SVGID_00000111189822923384174910000005490990279564898449_" gradientUnits="userSpaceOnUse" x1="131.18" y1="120.9564" x2="181.0992" y2="159.1662">
				<stop offset="0" style="stop-color:#56CBFF"/>
				<stop offset="0.9971" style="stop-color:#C4FFFF"/>
			</linearGradient>
			<path style="fill:url(#SVGID_00000111189822923384174910000005490990279564898449_);" d="M155,101.8l-46.1,79.8l0.4,0.6     c12.6,21.8,44.1,21.8,56.7,0l46.5-80.5H155z"/>
			
				<linearGradient id="SVGID_00000157297463880198547040000011881510016314406290_" gradientUnits="userSpaceOnUse" x1="69.5617" y1="53.262" x2="181.4735" y2="122.314">
				<stop offset="0" style="stop-color:#0496FF"/>
				<stop offset="0.9086" style="stop-color:#56CBFF"/>
			</linearGradient>
			<polygon style="fill:url(#SVGID_00000157297463880198547040000011881510016314406290_);" points="155,101.8 175.6,66 42.1,66      62.8,101.8 155,101.8    "/>
		</g>
		
			<linearGradient id="SVGID_00000026841536600084444130000017269281610944354953_" gradientUnits="userSpaceOnUse" x1="83.4585" y1="100.9496" x2="137.6919" y2="146.555">
			<stop offset="0" style="stop-color:#56CBFF"/>
			<stop offset="0.9971" style="stop-color:#C4FFFF"/>
		</linearGradient>
		<polygon style="fill:url(#SVGID_00000026841536600084444130000017269281610944354953_);" points="62.8,101.8 108.9,181.6     155,101.8   "/>
	</g>
	<g>
		<path class="st4" d="M289.3,140l-13.9-51.6L261.3,140c-1.1,3.9-2,6.7-2.6,8.4c-0.6,1.7-1.8,3.2-3.4,4.6c-1.6,1.4-3.7,2-6.4,2    c-2.2,0-3.9-0.4-5.3-1.2c-1.4-0.8-2.5-1.9-3.4-3.4c-0.9-1.5-1.6-3.2-2.1-5.2c-0.5-2-1-3.9-1.5-5.6l-14.3-58    c-0.9-3.4-1.3-5.9-1.3-7.7c0-2.2,0.8-4.1,2.3-5.6c1.6-1.5,3.5-2.3,5.8-2.3c3.2,0,5.3,1,6.4,3.1c1.1,2,2.1,5,2.9,8.9l11.3,50.3    l12.6-47c0.9-3.6,1.8-6.3,2.5-8.2c0.7-1.9,2-3.5,3.6-4.9c1.7-1.4,4-2.1,6.9-2.1c2.9,0,5.2,0.7,6.8,2.1c1.6,1.4,2.8,3,3.4,4.7    c0.6,1.7,1.5,4.5,2.5,8.3l12.7,47l11.3-50.3c0.5-2.6,1.1-4.7,1.6-6.2c0.5-1.5,1.3-2.8,2.5-4c1.2-1.2,2.9-1.8,5.2-1.8    c2.3,0,4.2,0.8,5.8,2.3c1.6,1.5,2.4,3.4,2.4,5.7c0,1.6-0.4,4.2-1.3,7.7l-14.3,58c-1,3.9-1.8,6.8-2.4,8.6c-0.6,1.8-1.7,3.4-3.3,4.8    c-1.5,1.4-3.7,2.1-6.5,2.1c-2.7,0-4.8-0.7-6.4-2c-1.6-1.3-2.7-2.8-3.3-4.5C291.3,146.9,290.4,144,289.3,140z"/>
		<path class="st4" d="M351.9,67.5h22.7c5.9,0,11,0.5,15.2,1.6c4.2,1.1,8.1,3.2,11.5,6.2c9,7.7,13.5,19.3,13.5,35    c0,5.2-0.5,9.9-1.4,14.2c-0.9,4.3-2.3,8.1-4.2,11.5c-1.9,3.4-4.3,6.5-7.2,9.2c-2.3,2.1-4.8,3.7-7.6,5c-2.7,1.3-5.7,2.1-8.8,2.6    c-3.2,0.5-6.7,0.8-10.7,0.8h-22.7c-3.2,0-5.6-0.5-7.2-1.4c-1.6-1-2.7-2.3-3.1-4.1c-0.5-1.7-0.7-4-0.7-6.8V78.2    c0-3.8,0.8-6.5,2.5-8.2C345.5,68.3,348.2,67.5,351.9,67.5z M358.7,81.3v58.4h13.2c2.9,0,5.2-0.1,6.8-0.2c1.6-0.2,3.3-0.5,5.1-1.2    c1.8-0.6,3.3-1.5,4.6-2.6c5.8-4.9,8.8-13.4,8.8-25.5c0-8.5-1.3-14.9-3.8-19.1c-2.6-4.2-5.7-6.9-9.5-8.1c-3.8-1.2-8.3-1.7-13.6-1.7    H358.7z"/>
		<path class="st4" d="M495.6,127.7c0,5.2-1.3,9.9-4,14c-2.7,4.2-6.6,7.4-11.8,9.7c-5.2,2.3-11.3,3.5-18.4,3.5    c-8.5,0-15.5-1.6-21-4.8c-3.9-2.3-7.1-5.4-9.5-9.3c-2.4-3.9-3.7-7.6-3.7-11.2c0-2.1,0.7-3.9,2.2-5.4c1.5-1.5,3.3-2.3,5.6-2.3    c1.8,0,3.4,0.6,4.7,1.8c1.3,1.2,2.4,2.9,3.3,5.2c1.1,2.7,2.3,5,3.6,6.9c1.3,1.8,3.1,3.4,5.4,4.6c2.3,1.2,5.3,1.8,9.1,1.8    c5.2,0,9.4-1.2,12.6-3.6c3.2-2.4,4.8-5.4,4.8-9c0-2.9-0.9-5.2-2.6-7c-1.7-1.8-4-3.1-6.8-4.1c-2.8-0.9-6.5-1.9-11.1-3    c-6.2-1.4-11.4-3.1-15.5-5.1c-4.2-1.9-7.5-4.6-9.9-7.9c-2.4-3.3-3.7-7.5-3.7-12.5c0-4.7,1.3-8.9,3.9-12.6    c2.6-3.7,6.3-6.5,11.2-8.5c4.9-2,10.7-3,17.3-3c5.3,0,9.9,0.7,13.7,2c3.9,1.3,7.1,3.1,9.6,5.2c2.5,2.2,4.4,4.5,5.6,6.8    c1.2,2.4,1.8,4.7,1.8,7c0,2.1-0.7,3.9-2.2,5.6c-1.5,1.7-3.3,2.5-5.5,2.5c-2,0-3.5-0.5-4.6-1.5c-1-1-2.2-2.6-3.4-4.9    c-1.6-3.2-3.4-5.8-5.6-7.6c-2.2-1.8-5.7-2.7-10.6-2.7c-4.5,0-8.1,1-10.9,3c-2.8,2-4.1,4.4-4.1,7.1c0,1.7,0.5,3.2,1.4,4.5    c0.9,1.3,2.2,2.3,3.9,3.2c1.6,0.9,3.3,1.6,5,2.1c1.7,0.5,4.5,1.3,8.3,2.2c4.9,1.1,9.3,2.4,13.2,3.8c3.9,1.4,7.3,3,10,5    c2.8,2,4.9,4.4,6.5,7.4C494.8,119.7,495.6,123.4,495.6,127.7z"/>
	</g>
	<g>
		<path class="st4" d="M378.1,167.4h-8.1v26.8c0,1.5-0.3,2.7-1,3.4c-0.7,0.7-1.6,1.1-2.7,1.1c-1.1,0-2-0.4-2.7-1.1s-1-1.9-1-3.4    v-26.8h-8.1c-1.3,0-2.2-0.3-2.8-0.8c-0.6-0.6-0.9-1.3-0.9-2.2c0-1,0.3-1.7,1-2.3c0.6-0.6,1.6-0.8,2.8-0.8h23.7    c1.3,0,2.2,0.3,2.9,0.9c0.6,0.6,0.9,1.3,0.9,2.2c0,0.9-0.3,1.7-1,2.2C380.3,167.1,379.3,167.4,378.1,167.4z"/>
		<path class="st4" d="M401.7,186.4h-13.4c0,1.6,0.3,2.9,0.9,4.1c0.6,1.2,1.4,2.1,2.4,2.7c1,0.6,2.1,0.9,3.4,0.9    c0.8,0,1.6-0.1,2.2-0.3c0.7-0.2,1.3-0.5,2-0.9c0.6-0.4,1.2-0.8,1.8-1.3c0.5-0.5,1.2-1.1,2.1-1.9c0.4-0.3,0.9-0.5,1.5-0.5    c0.7,0,1.3,0.2,1.7,0.6c0.4,0.4,0.7,0.9,0.7,1.6c0,0.6-0.2,1.3-0.7,2.2c-0.5,0.8-1.2,1.6-2.2,2.4c-1,0.8-2.2,1.4-3.7,1.9    c-1.5,0.5-3.2,0.8-5.1,0.8c-4.4,0-7.8-1.3-10.3-3.8c-2.4-2.5-3.7-5.9-3.7-10.2c0-2,0.3-3.9,0.9-5.6c0.6-1.7,1.5-3.2,2.6-4.5    c1.2-1.2,2.6-2.2,4.3-2.9c1.7-0.7,3.6-1,5.6-1c2.7,0,5,0.6,6.9,1.7c1.9,1.1,3.4,2.6,4.3,4.4c1,1.8,1.4,3.6,1.4,5.5    c0,1.7-0.5,2.8-1.5,3.4C404.9,186.1,403.5,186.4,401.7,186.4z M388.3,182.5h12.4c-0.2-2.3-0.8-4.1-1.9-5.3    c-1.1-1.2-2.5-1.7-4.3-1.7c-1.7,0-3.1,0.6-4.2,1.8C389.2,178.4,388.5,180.2,388.3,182.5z"/>
		<path class="st4" d="M437.8,190.2c0,0.9-0.3,1.8-0.8,2.7c-0.5,1-1.3,1.9-2.3,2.8c-1,0.9-2.4,1.6-4,2.1c-1.6,0.5-3.4,0.8-5.4,0.8    c-4.2,0-7.5-1.2-9.9-3.7c-2.4-2.5-3.6-5.8-3.6-9.9c0-2.8,0.5-5.3,1.6-7.5c1.1-2.2,2.7-3.8,4.7-5s4.5-1.8,7.4-1.8    c1.8,0,3.4,0.3,4.9,0.8c1.5,0.5,2.7,1.2,3.8,2c1,0.8,1.8,1.7,2.4,2.6c0.5,0.9,0.8,1.8,0.8,2.6c0,0.8-0.3,1.5-0.9,2.1    c-0.6,0.6-1.4,0.9-2.2,0.9c-0.6,0-1-0.1-1.4-0.4c-0.4-0.3-0.8-0.8-1.3-1.4c-0.8-1.3-1.7-2.2-2.6-2.9c-0.9-0.6-2.1-1-3.5-1    c-2,0-3.7,0.8-4.9,2.4c-1.2,1.6-1.9,3.7-1.9,6.5c0,1.3,0.2,2.5,0.5,3.6c0.3,1.1,0.8,2,1.4,2.8c0.6,0.8,1.3,1.3,2.2,1.7    c0.9,0.4,1.8,0.6,2.8,0.6c1.4,0,2.6-0.3,3.5-1c1-0.6,1.8-1.6,2.6-2.9c0.4-0.8,0.9-1.4,1.4-1.8c0.5-0.4,1.1-0.7,1.8-0.7    c0.8,0,1.5,0.3,2.1,1C437.5,188.8,437.8,189.4,437.8,190.2z"/>
		<path class="st4" d="M449.2,164.7v10.2c0.9-1,1.7-1.8,2.5-2.4c0.8-0.6,1.7-1,2.8-1.3c1-0.3,2.1-0.4,3.2-0.4c1.7,0,3.3,0.4,4.6,1.1    c1.3,0.7,2.4,1.8,3.2,3.2c0.5,0.8,0.8,1.7,1,2.8c0.2,1,0.3,2.2,0.3,3.5v13.1c0,1.4-0.3,2.4-0.9,3.1c-0.6,0.7-1.5,1.1-2.5,1.1    c-2.3,0-3.4-1.4-3.4-4.2v-11.6c0-2.2-0.3-3.9-1-5.1c-0.7-1.2-1.9-1.8-3.7-1.8c-1.2,0-2.3,0.3-3.3,1c-1,0.7-1.7,1.6-2.2,2.9    c-0.4,1-0.6,2.8-0.6,5.5v9.1c0,1.4-0.3,2.4-0.9,3.1c-0.6,0.7-1.5,1.1-2.5,1.1c-2.3,0-3.4-1.4-3.4-4.2v-29.7c0-1.4,0.3-2.4,0.9-3.1    c0.6-0.7,1.4-1,2.5-1c1.1,0,1.9,0.4,2.5,1.1C448.9,162.3,449.2,163.4,449.2,164.7z"/>
		<path class="st4" d="M495.6,189.7c0,1.9-0.5,3.5-1.4,4.9c-0.9,1.3-2.3,2.4-4.1,3.1c-1.8,0.7-4,1-6.6,1c-2.5,0-4.6-0.4-6.3-1.1    s-3.1-1.7-3.9-2.8c-0.8-1.1-1.3-2.3-1.3-3.4c0-0.8,0.3-1.4,0.8-1.9c0.5-0.5,1.2-0.8,2-0.8c0.7,0,1.3,0.2,1.7,0.5    c0.4,0.4,0.8,0.8,1.1,1.5c0.7,1.2,1.5,2.1,2.5,2.7c1,0.6,2.3,0.9,4,0.9c1.4,0,2.5-0.3,3.4-0.9c0.9-0.6,1.3-1.3,1.3-2.1    c0-1.2-0.5-2.1-1.4-2.6c-0.9-0.6-2.4-1.1-4.5-1.6c-2.4-0.6-4.3-1.2-5.8-1.8c-1.5-0.6-2.7-1.5-3.6-2.5c-0.9-1.1-1.3-2.4-1.3-3.9    c0-1.4,0.4-2.7,1.2-3.9c0.8-1.2,2-2.2,3.6-2.9s3.5-1.1,5.8-1.1c1.8,0,3.4,0.2,4.8,0.6c1.4,0.4,2.6,0.9,3.5,1.5    c0.9,0.6,1.7,1.3,2.2,2.1c0.5,0.8,0.7,1.5,0.7,2.2c0,0.8-0.3,1.4-0.8,1.9c-0.5,0.5-1.3,0.8-2.2,0.8c-0.7,0-1.3-0.2-1.8-0.6    c-0.5-0.4-1.1-1-1.7-1.8c-0.5-0.7-1.1-1.2-1.8-1.6c-0.7-0.4-1.7-0.6-2.9-0.6c-1.2,0-2.3,0.3-3.1,0.8c-0.8,0.5-1.2,1.2-1.2,2    c0,0.7,0.3,1.3,0.9,1.8s1.4,0.8,2.4,1.1c1,0.3,2.4,0.7,4.2,1.1c2.1,0.5,3.9,1.1,5.2,1.9c1.3,0.7,2.4,1.6,3.1,2.6    C495.3,187.3,495.6,188.4,495.6,189.7z"/>
	</g>
</g>
</svg>