<?xml version="1.0" encoding="UTF-8"?>
<!-- Generator: Adobe Illustrator 28.2.0, SVG Export Plug-In . SVG Version: 6.00 Build 0)  -->
<svg version="1.1" id="Layer_1" xmlns="http://www.w3.org/2000/svg" xmlns:xlink="http://www.w3.org/1999/xlink" x="0px" y="0px" viewBox="0 0 500 192" style="enable-background:new 0 0 500 192;" xml:space="preserve">
<style type="text/css">
	.st0{fill:url(#SVGID_1_);}
	.st1{opacity:0.5;}
	.st2{fill:url(#SVGID_00000101067769845946755240000008165503110471497867_);}
	.st3{fill:url(#SVGID_00000036247458537455466570000003853051433872988858_);}
	.st4{opacity:0.5;fill:url(#SVGID_00000034797620309123775120000008090143208341981347_);}
	.st5{fill:url(#SVGID_00000054241520307317160090000006131456932239776695_);}
	.st6{fill:url(#SVGID_00000163074397028512290420000016749624144897677748_);}
	.st7{opacity:0.5;fill:url(#SVGID_00000129889257070442695420000006237204762098906798_);}
	.st8{fill:url(#SVGID_00000166673266601323066190000000872537512232673669_);}
	.st9{fill:url(#SVGID_00000118356804218890487290000013935969001936319167_);}
	.st10{fill:url(#SVGID_00000176032723107637089690000016893713585603162753_);}
	.st11{fill:#672CC2;}
	.st12{fill:#422090;}
</style>
<g>
	<g>
		<g>
			<g>
				<g>
					<linearGradient id="SVGID_1_" gradientUnits="userSpaceOnUse" x1="28.7335" y1="150.119" x2="132.7575" y2="44.5366">
						<stop offset="0" style="stop-color:#8E15B8"/>
						<stop offset="0.4692" style="stop-color:#BA37B8"/>
						<stop offset="1" style="stop-color:#E85BB7"/>
					</linearGradient>
					<path class="st0" d="M132.8,45.2c-28.8-28.8-75.5-28.8-104.2,0c-28.8,28.8-28.8,75.4,0,104.2c28.8,28.8,75.4,28.8,104.2,0       C161.6,120.7,161.6,74,132.8,45.2z M121.9,138.5c-22.7,22.7-59.6,22.7-82.3,0c-1.8-1.8-3.4-3.6-4.9-5.5c-2.3-2.9-4.3-6-5.9-9.3       c-0.6-1.1-1.1-2.3-1.6-3.4c-0.6-1.5-1.2-3-1.7-4.5c-0.6-1.8-1.1-3.7-1.5-5.5c-0.5-2.2-0.9-4.5-1.1-6.8c-0.1-0.7-0.1-1.3-0.2-2       c0-0.1,0-0.1,0-0.2c-0.4-5.5,0.1-11.1,1.3-16.5c0.5-2.3,1.2-4.6,2-6.8c2.8-7.9,7.4-15.3,13.7-21.7       c17.7-17.7,44.1-21.6,65.6-11.7c4.5,2.1,8.7,4.7,12.7,8c1.4,1.1,2.7,2.4,4,3.6c0.2,0.2,0.5,0.5,0.7,0.7       c4.1,4.2,7.4,8.8,9.9,13.8c1.4,2.7,2.5,5.4,3.4,8.2c1.8,5.3,2.8,10.7,3,16.2C139.5,110.7,133.8,126.6,121.9,138.5z"/>
				</g>
				<g class="st1">
					
						<linearGradient id="SVGID_00000132090306546040893830000017722488135790845070_" gradientUnits="userSpaceOnUse" x1="28.7335" y1="150.119" x2="132.7575" y2="44.5366">
						<stop offset="0" style="stop-color:#FFEC00;stop-opacity:0"/>
						<stop offset="0.5674" style="stop-color:#FFEC00;stop-opacity:0.8518"/>
						<stop offset="0.92" style="stop-color:#FFEC00"/>
					</linearGradient>
					<path style="fill:url(#SVGID_00000132090306546040893830000017722488135790845070_);" d="M132.8,45.2       c-28.8-28.8-75.5-28.8-104.2,0c-28.8,28.8-28.8,75.4,0,104.2c28.8,28.8,75.4,28.8,104.2,0C161.6,120.7,161.6,74,132.8,45.2z        M121.9,138.5c-22.7,22.7-59.6,22.7-82.3,0c-1.8-1.8-3.4-3.6-4.9-5.5c-2.3-2.9-4.3-6-5.9-9.3c-0.6-1.1-1.1-2.3-1.6-3.4       c-0.6-1.5-1.2-3-1.7-4.5c-0.6-1.8-1.1-3.7-1.5-5.5c-0.5-2.2-0.9-4.5-1.1-6.8c-0.1-0.7-0.1-1.3-0.2-2c0-0.1,0-0.1,0-0.2       c-0.4-5.5,0.1-11.1,1.3-16.5c0.5-2.3,1.2-4.6,2-6.8c2.8-7.9,7.4-15.3,13.7-21.7c17.7-17.7,44.1-21.6,65.6-11.7       c4.5,2.1,8.7,4.7,12.7,8c1.4,1.1,2.7,2.4,4,3.6c0.2,0.2,0.5,0.5,0.7,0.7c4.1,4.2,7.4,8.8,9.9,13.8c1.4,2.7,2.5,5.4,3.4,8.2       c1.8,5.3,2.8,10.7,3,16.2C139.5,110.7,133.8,126.6,121.9,138.5z"/>
				</g>
				
					<radialGradient id="SVGID_00000161601082770697076790000005117685961269259194_" cx="79.6764" cy="57.666" r="94.4626" gradientTransform="matrix(6.123234e-17 1 -0.9414 5.764339e-17 133.9624 -22.0104)" gradientUnits="userSpaceOnUse">
					<stop offset="0.5455" style="stop-color:#E85BB7"/>
					<stop offset="0.7867" style="stop-color:#BA37B8"/>
					<stop offset="1" style="stop-color:#8E15B8"/>
				</radialGradient>
				<path style="fill:url(#SVGID_00000161601082770697076790000005117685961269259194_);" d="M60.9,72.1v29.8      c-7.4,3.5-15.3,6-23.7,7.3c-0.8,0.1-1.6,0.2-2.4,0.3V72.1H60.9z"/>
				
					<linearGradient id="SVGID_00000068665562733844893100000015828823520709109912_" gradientUnits="userSpaceOnUse" x1="59.2501" y1="71.5561" x2="32.1726" y2="108.179">
					<stop offset="8.003770e-02" style="stop-color:#FFEC00"/>
					<stop offset="0.4326" style="stop-color:#FFEC00;stop-opacity:0.8518"/>
					<stop offset="1" style="stop-color:#FFEC00;stop-opacity:0"/>
				</linearGradient>
				<path style="opacity:0.5;fill:url(#SVGID_00000068665562733844893100000015828823520709109912_);" d="M60.9,72.1v29.8      c-7.4,3.5-15.3,6-23.7,7.3c-0.8,0.1-1.6,0.2-2.4,0.3V72.1H60.9z"/>
				
					<radialGradient id="SVGID_00000021093906836682293650000011754929930120536745_" cx="79.6764" cy="57.666" r="94.4623" gradientTransform="matrix(6.123234e-17 1 -0.9414 5.764339e-17 133.9624 -22.0104)" gradientUnits="userSpaceOnUse">
					<stop offset="0.5455" style="stop-color:#E85BB7"/>
					<stop offset="0.7867" style="stop-color:#BA37B8"/>
					<stop offset="1" style="stop-color:#8E15B8"/>
				</radialGradient>
				<path style="fill:url(#SVGID_00000021093906836682293650000011754929930120536745_);" d="M59.3,123.5c0.5-0.1,1-0.2,1.5-0.3      v25.9c-7.2-2.7-14-7-19.8-12.8c-2.3-2.3-4.4-4.8-6.2-7.4v-4.5C42.9,125,51.1,124.7,59.3,123.5z"/>
				
					<radialGradient id="SVGID_00000022527673711093996090000001149724778962496896_" cx="79.6762" cy="57.6658" r="94.4629" gradientUnits="userSpaceOnUse">
					<stop offset="0.5455" style="stop-color:#E85BB7"/>
					<stop offset="0.7867" style="stop-color:#BA37B8"/>
					<stop offset="1" style="stop-color:#8E15B8"/>
				</radialGradient>
				<path style="fill:url(#SVGID_00000022527673711093996090000001149724778962496896_);" d="M93.7,72.1v2      c-6.8,9.7-15.7,18-26.1,24.2V72.1H93.7z"/>
				
					<linearGradient id="SVGID_00000072246489669542312740000004684158137229887628_" gradientUnits="userSpaceOnUse" x1="67.6657" y1="85.1936" x2="93.7423" y2="85.1936">
					<stop offset="0" style="stop-color:#FFEC00;stop-opacity:0"/>
					<stop offset="0.5674" style="stop-color:#FFEC00;stop-opacity:0.8518"/>
					<stop offset="0.92" style="stop-color:#FFEC00"/>
				</linearGradient>
				<path style="opacity:0.5;fill:url(#SVGID_00000072246489669542312740000004684158137229887628_);" d="M93.7,72.1v2      c-6.8,9.7-15.7,18-26.1,24.2V72.1H93.7z"/>
				
					<radialGradient id="SVGID_00000029727888601077485850000015414912220520493493_" cx="79.6762" cy="57.6661" r="94.4625" gradientUnits="userSpaceOnUse">
					<stop offset="0.5455" style="stop-color:#E85BB7"/>
					<stop offset="0.7867" style="stop-color:#BA37B8"/>
					<stop offset="1" style="stop-color:#8E15B8"/>
				</radialGradient>
				<path style="fill:url(#SVGID_00000029727888601077485850000015414912220520493493_);" d="M67.7,121.9c9.1-2.1,17.8-5.4,26.1-9.8      v39.3c-8.6,1.7-17.5,1.7-26.1,0V121.9z"/>
				
					<radialGradient id="SVGID_00000000222181792419879400000009577170025272065193_" cx="79.6762" cy="57.666" r="94.4627" gradientUnits="userSpaceOnUse">
					<stop offset="0.5455" style="stop-color:#E85BB7"/>
					<stop offset="0.7867" style="stop-color:#BA37B8"/>
					<stop offset="1" style="stop-color:#8E15B8"/>
				</radialGradient>
				<path style="fill:url(#SVGID_00000000222181792419879400000009577170025272065193_);" d="M126.6,85.3v43.5      c-1.8,2.6-3.9,5.1-6.2,7.4c-5.8,5.8-12.6,10.1-19.8,12.8v-40.9c3.5-2.2,6.8-4.5,10.1-7.1C116.5,96.4,121.8,91.1,126.6,85.3z"/>
			</g>
			
				<linearGradient id="SVGID_00000176765834008259603210000006442590821379405742_" gradientUnits="userSpaceOnUse" x1="55.6224" y1="116.0431" x2="130.525" y2="18.3977">
				<stop offset="0" style="stop-color:#DB8D38"/>
				<stop offset="0.3597" style="stop-color:#FAD53E"/>
			</linearGradient>
			<path style="fill:url(#SVGID_00000176765834008259603210000006442590821379405742_);" d="M147.3,60.5l-9.6-2.7     C114,110.6,55.5,131.5,8.9,113c49.5,8.3,90.8-23.1,100.4-63.1l-9.4-2.6l32.8-26.4L147.3,60.5z"/>
		</g>
	</g>
	<g>
		<g>
			<g>
				<g>
					<g>
						<path class="st11" d="M317.1,129.8h-12.4v-3.2h28.5v3.2h-12.4v32h-3.7V129.8z"/>
						<path class="st11" d="M381.8,158.7v3.2h-24.9v-35.3H381v3.2h-20.5v12.5h18.2v3.2h-18.2v13.1H381.8z"/>
						<path class="st11" d="M404.9,144.2c0-10.3,7.9-17.9,18.5-17.9c5.1,0,9.8,1.7,12.9,5.1l-2.4,2.4c-2.9-2.9-6.4-4.2-10.4-4.2        c-8.5,0-14.9,6.2-14.9,14.6c0,8.4,6.4,14.6,14.9,14.6c4,0,7.6-1.3,10.4-4.2l2.4,2.4c-3.1,3.4-7.8,5.2-13,5.2        C412.7,162.2,404.9,154.6,404.9,144.2z"/>
						<path class="st11" d="M491.3,126.6v35.3h-3.7v-16.3h-22.1v16.3h-3.7v-35.3h3.7v15.7h22.1v-15.7H491.3z"/>
					</g>
				</g>
			</g>
		</g>
	</g>
	<g>
		<g>
			<path class="st12" d="M228.9,66.6h18v34.6c-9.4,7.1-22.3,10.8-34.5,10.8c-26.8,0-46.5-18.4-46.5-44.1s19.7-44.1,46.9-44.1     c15,0,27.4,5.1,35.7,14.7l-12.7,11.7c-6.2-6.6-13.4-9.6-22.1-9.6c-16.6,0-27.9,11.1-27.9,27.3c0,16,11.3,27.3,27.7,27.3     c5.4,0,10.4-1,15.4-3.7V66.6z"/>
			<path class="st12" d="M269,68c0-25.3,19.7-44.1,46.7-44.1c26.8,0,46.7,18.6,46.7,44.1c0,25.5-19.9,44.1-46.7,44.1     C288.7,112.1,269,93.3,269,68z M342.3,68c0-16.2-11.5-27.3-26.7-27.3S288.9,51.8,288.9,68s11.5,27.3,26.7,27.3     S342.3,84.2,342.3,68z"/>
			<path class="st12" d="M406,41.2v22.5h39.5v15.8H406v31.1h-19.7V25.3h64.5v15.8H406z"/>
			<path class="st12" d="M473.3,25.3H493v85.3h-19.7V25.3z"/>
		</g>
	</g>
</g>
</svg>