<svg width="116" height="39" viewBox="0 0 116 39" fill="none" xmlns="http://www.w3.org/2000/svg">
<path d="M1 19.5C1 9.28273 9.28273 1 19.5 1H95.9C106.117 1 114.4 9.28273 114.4 19.5C114.4 29.7173 106.117 38 95.9 38H19.5C9.28275 38 1 29.7173 1 19.5Z" stroke="black" stroke-width="2"/>
<path d="M28.8963 13.6499C28.8963 15.0452 28.6203 16.2795 28.0683 17.3529C27.5163 18.4262 26.7496 19.2695 25.7683 19.8829C26.7496 20.4962 27.5163 21.3395 28.0683 22.4129C28.6203 23.4862 28.8963 24.7205 28.8963 26.1159V28.3469H25.8603V26.0929C25.8603 25.1422 25.6839 24.2989 25.3313 23.5629C24.9939 22.8115 24.5109 22.2289 23.8823 21.8149C23.2536 21.4009 22.5406 21.1939 21.7433 21.1939C20.9613 21.1939 20.2559 21.4009 19.6273 21.8149C18.9986 22.2289 18.5079 22.8115 18.1553 23.5629C17.8179 24.2989 17.6493 25.1422 17.6493 26.0929V28.3469H14.5903V26.1159C14.5903 24.7205 14.8663 23.4862 15.4183 22.4129C15.9703 21.3395 16.7369 20.4962 17.7183 19.8829C16.7369 19.2695 15.9703 18.4262 15.4183 17.3529C14.8663 16.2795 14.5903 15.0452 14.5903 13.6499V12.2699H17.6493V13.6729C17.6493 14.6235 17.8179 15.4745 18.1553 16.2259C18.5079 16.9619 18.9909 17.5369 19.6043 17.9509C20.2329 18.3495 20.9459 18.5489 21.7433 18.5489C22.5559 18.5489 23.2689 18.3495 23.8823 17.9509C24.5109 17.5369 24.9939 16.9619 25.3313 16.2259C25.6839 15.4745 25.8603 14.6235 25.8603 13.6729V12.2699H28.8963V13.6499ZM42.608 12.2699H45.575V16.1569C45.575 18.0735 45.0997 19.6375 44.149 20.8489C43.1984 22.0449 41.8567 22.7732 40.124 23.0339V28.3699H37.157V23.0339C35.4244 22.7579 34.075 22.0219 33.109 20.8259C32.1584 19.6145 31.683 18.0582 31.683 16.1569V12.2699H34.673V16.1569C34.673 17.5675 35.0104 18.6562 35.685 19.4229C36.375 20.1895 37.364 20.5729 38.652 20.5729C39.9247 20.5729 40.8984 20.1895 41.573 19.4229C42.263 18.6562 42.608 17.5675 42.608 16.1569V12.2699ZM47.4057 19.1009C47.4057 17.6595 47.7047 16.4099 48.3027 15.3519C48.916 14.2785 49.7593 13.4582 50.8327 12.8909C51.906 12.3082 53.1403 12.0169 54.5357 12.0169C55.931 12.0169 57.1653 12.3082 58.2387 12.8909C59.3273 13.4582 60.1707 14.2785 60.7687 15.3519C61.382 16.4099 61.6887 17.6595 61.6887 19.1009V28.3699H58.7217V19.1009C58.7217 17.7055 58.3383 16.6169 57.5717 15.8349C56.805 15.0529 55.793 14.6619 54.5357 14.6619C53.2937 14.6619 52.2893 15.0605 51.5227 15.8579C50.7713 16.6399 50.3957 17.7209 50.3957 19.1009V28.3699H47.4057V19.1009ZM67.949 28.3699H64.982V12.2699H67.949V28.3699ZM70.3173 12.2699H83.8643V14.8919H78.5743V28.3699H75.5843V14.8919H70.3173V12.2699ZM96.8512 12.2699H99.8182V16.1569C99.8182 18.0735 99.3429 19.6375 98.3922 20.8489C97.4415 22.0449 96.0999 22.7732 94.3672 23.0339V28.3699H91.4002V23.0339C89.6675 22.7579 88.3182 22.0219 87.3522 20.8259C86.4015 19.6145 85.9262 18.0582 85.9262 16.1569V12.2699H88.9162V16.1569C88.9162 17.5675 89.2535 18.6562 89.9282 19.4229C90.6182 20.1895 91.6072 20.5729 92.8952 20.5729C94.1679 20.5729 95.1415 20.1895 95.8162 19.4229C96.5062 18.6562 96.8512 17.5675 96.8512 16.1569V12.2699Z" fill="#43E7AF"/>
</svg>